<svg xmlns="http://www.w3.org/2000/svg" xmlns:xlink="http://www.w3.org/1999/xlink" width="800" height="800" viewBox="0 0 800 800">
  <defs>
    <clipPath id="clip-Logo-feature">
      <rect width="800" height="800"/>
    </clipPath>
  </defs>
  <g id="Logo-feature" clip-path="url(#clip-Logo-feature)">
    <rect width="800" height="800" fill="#f9f8f6"/>
    <path id="logo-manamovement" d="M354.405.369c202.231-8.49,372.981,131.321,393.607,335.168,22.372,221.143-147.311,410.2-367.518,414.4C148.78,754.349-30.55,547.839,4.352,317.522,30.585,144.452,179.249,7.726,354.405.369Zm-55.627,33.61c-19.6,1.07-47.047,11.872-65.138,19.922C121.078,103.943,38.287,209.514,23.9,333.531,7.881,471.75,69.177,603.008,185.3,677.577c72.42,46.508,145.126,59.009,215.808,1.007,6.269-5.145,24.28-20.488,25.794-27.881,2.66-12.942-11.5-15.47-21.083-14.444-13.64,1.457-27.925,5.909-41.861,7.618-82.281,10.118-169.183-48.261-216.722-111.66C110.322,482.993,84.492,413.38,92.419,351.106c6.207-48.8,33.595-106.335,66.616-142.527,27.3-29.914,64.019-49.862,88.245-82.555C259.3,109.8,268.551,89.8,283.938,76.476c8.508-7.375,31.481-21.657,32.851-33.233,1.119-9.462-11.6-9.624-18.011-9.273h0Zm122.583,0c-50.988,1.3-115.06,26.478-140.774,73.265-14.222,25.885,8.929,28.907,28.875,28.466,17.832-.387,30.469-2.437,48.749.657,76.7,13,154.065,83.5,159.573,164,3.135,45.788-12.816,73.588-25.248,114.772-12.682,42.038-4.263,80.352.976,122.614,1.3,10.5.815,31.784,9.09,38.962,12.422,10.775,29.511-4.02,39.121-11.89,89.974-73.759,133.25-195.744,102.208-309.922-13-47.848-41.933-90.713-69.894-130.97-36-51.841-86.392-91.657-152.676-89.957h0ZM402.6,719.785c8.58,8.832,27.307,3.391,38.028,1.052C580.263,690.393,699.81,584.3,727.691,440.766,747.627,338.1,717.4,249.069,658.307,166.55c-9.628-13.446-21.584-30.2-32.368-42.478-4.89-5.558-14.473-15.8-22.4-10.622-5.553,3.634-3.1,8.859-.466,13.41,3.457,5.972,9.189,12.322,13.211,18.285,39.64,58.739,63.132,134.567,57.051,205.9-4.585,53.811-27.979,112.7-58.6,156.791-32.833,47.263-81.483,76.529-125,112.361-20.59,16.954-40,35.364-60.007,52.992-10.577,9.318-43.088,30.184-27.119,46.607H402.6ZM314.747,151.872c-25.355,1.682-57.346,15.793-64.028,42.757-7.362,29.752,15.772,75.018,35.3,96.937,14.366,16.135,28.391,8.454,46.581,7.492,29.7-1.583,70.718,8.445,72.93,44.718,1.173,19.328-15.279,30.139-3.018,48.019,6.225,9.075,25.194,22.485,35.458,26.46,26.349,10.208,45.883-17.871,53.567-39.277,18.342-51.131,8.921-109.2-24.746-151.494-31.848-40.014-100.023-79.066-152.031-75.612h-.009ZM205.034,197.363c-20.707,2.509-39.291,34.393-49.958,50.672-55.376,84.489-50.029,163.213-3.762,250.643C202.857,596.065,297.283,629.72,403.7,619.656c34.025-3.22,63.67-8.113,73.145-46.013,6.6-26.4.161-68.813-18.539-89.463-21.217-23.429-48.14-8.715-74.157-7.213C331.459,480.016,277.74,436.755,275.17,382.6c-.716-15.173,4.514-24.266,7.4-38.116,5.266-25.273-9.52-39.025-20.859-59.018-11.464-20.218-17.545-42.316-27.119-63.263-6.323-13.833-11.518-27.036-29.564-24.841h0ZM349.255,314.752c-8.222.549-22.22,5.135-19.632,15.775,2.821,11.575,29.627,36.866,41.611,37.855,21.307,1.772,22.928-25.75,12.628-38.53-6.9-8.553-23.743-15.829-34.607-15.11h0Zm-37.616,36.165c-16.649,2.024-17.384,29.365-15.091,41.768,7.487,40.41,55.734,66.78,94.3,64.118,12.153-.836,31.221-10.325,25.212-25.354-1.979-4.947-17.1-16.531-21.943-20.371-14.625-11.584-29.645-21.738-43.733-34.168-9.341-8.247-25.48-27.593-38.745-25.983h0Z" transform="translate(25.004 24.998)" fill="#9e6365"/>
  </g>
</svg>
