<?xml version="1.0" encoding="UTF-8"?><svg id="Layer_1" xmlns="http://www.w3.org/2000/svg" viewBox="0 0 837.41 833.89"><defs><style>.cls-1{fill:#f6eadb;}</style></defs><path class="cls-1" d="M395.71.41c225.8-9.44,416.45,146.01,439.48,372.66,24.98,245.88-164.48,456.08-410.35,460.75C166.12,838.73-34.11,609.11,4.86,353.03,34.15,160.61,200.14,8.58,395.71.41ZM333.6,37.78c-21.88,1.19-52.53,13.2-72.73,22.15C135.2,115.57,42.75,232.94,26.7,370.83c-17.89,153.68,50.55,299.62,180.21,382.53,80.86,51.71,162.04,65.61,240.96,1.12,7-5.72,27.11-22.78,28.8-31,2.97-14.39-12.84-17.2-23.54-16.06-15.23,1.62-31.18,6.57-46.74,8.47-91.87,11.25-188.9-53.66-241.98-124.15-41.22-54.73-70.06-132.13-61.21-201.37,6.93-54.26,37.51-118.23,74.38-158.47,30.48-33.26,71.48-55.44,98.53-91.79,13.42-18.04,23.75-40.27,40.93-55.09,9.5-8.2,35.15-24.08,36.68-36.95,1.25-10.52-12.95-10.7-20.11-10.31v.02ZM470.48,37.78c-56.93,1.45-128.47,29.44-157.18,81.46-15.88,28.78,9.97,32.14,32.24,31.65,19.91-.43,34.02-2.71,54.43.73,85.64,14.45,172.02,92.84,178.17,182.35,3.5,50.91-14.31,81.82-28.19,127.61-14.16,46.74-4.76,89.34,1.09,136.33,1.45,11.68.91,35.34,10.15,43.32,13.87,11.98,32.95-4.47,43.68-13.22,100.46-82.01,148.78-217.64,114.12-344.59-14.52-53.2-46.82-100.86-78.04-145.62-40.2-57.64-96.46-101.91-170.47-100.02h0ZM449.52,800.29c9.58,9.82,30.49,3.77,42.46,1.17,155.91-33.85,289.39-151.81,320.52-311.4,22.26-114.15-11.49-213.14-77.47-304.89-10.75-14.95-24.1-33.58-36.14-47.23-5.46-6.18-16.16-17.57-25.01-11.81-6.2,4.04-3.46,9.85-.52,14.91,3.86,6.64,10.26,13.7,14.75,20.33,44.26,65.31,70.49,149.62,63.7,228.93-5.12,59.83-31.24,125.31-65.43,174.33-36.66,52.55-90.98,85.09-139.57,124.93-22.99,18.85-44.66,39.32-67,58.92-11.81,10.36-48.11,33.56-30.28,51.82h-.01ZM351.43,168.85c-28.31,1.87-64.03,17.56-71.49,47.54-8.22,33.08,17.61,83.41,39.41,107.78,16.04,17.94,31.7,9.4,52.01,8.33,33.16-1.76,78.96,9.39,81.43,49.72,1.31,21.49-17.06,33.51-3.37,53.39,6.95,10.09,28.13,25,39.59,29.42,29.42,11.35,51.23-19.87,59.81-43.67,20.48-56.85,9.96-121.41-27.63-168.44-35.56-44.49-111.68-87.91-169.75-84.07h-.01ZM228.93,219.43c-23.12,2.79-43.87,38.24-55.78,56.34-61.83,93.94-55.86,181.47-4.2,278.68,57.55,108.28,162.98,145.7,281.8,134.51,37.99-3.58,71.09-9.02,81.67-51.16,7.37-29.35.18-76.51-20.7-99.47-23.69-26.05-53.75-9.69-82.8-8.02-58.83,3.39-118.81-44.71-121.68-104.92-.8-16.87,5.04-26.98,8.26-42.38,5.88-28.1-10.63-43.39-23.29-65.62-12.8-22.48-19.59-47.05-30.28-70.34-7.06-15.38-12.86-30.06-33.01-27.62h0ZM389.96,349.95c-9.18.61-24.81,5.71-21.92,17.54,3.15,12.87,33.08,40.99,46.46,42.09,23.79,1.97,25.6-28.63,14.1-42.84-7.7-9.51-26.51-17.6-38.64-16.8h0ZM347.96,390.17c-18.59,2.25-19.41,32.65-16.85,46.44,8.36,44.93,62.23,74.25,105.29,71.29,13.57-.93,34.86-11.48,28.15-28.19-2.21-5.5-19.09-18.38-24.5-22.65-16.33-12.88-33.1-24.17-48.83-37.99-10.43-9.17-28.45-30.68-43.26-28.89h0Z"/></svg>